<?xml version="1.0" standalone="no"?>
<!DOCTYPE svg PUBLIC "-//W3C//DTD SVG 20010904//EN"
        "http://www.w3.org/TR/2001/REC-SVG-20010904/DTD/svg10.dtd">
<svg version="1.0" xmlns="http://www.w3.org/2000/svg"
     width="1000.000000pt" height="1000.000000pt" viewBox="0 0 1000.000000 1000.000000"
     preserveAspectRatio="xMidYMid meet">
    <metadata>
        Created by potrace 1.14, written by Peter Selinger 2001-2017
    </metadata>
    <g transform="translate(0.000000,1000.000000) scale(0.100000,-0.100000)"
       fill="#000000" stroke="none">
        <path d="M4598 9988 c-6 -17 18 -103 43 -154 18 -35 95 -118 172 -182 27 -24
108 -120 113 -136 11 -34 -17 -47 -102 -48 -87 -2 -98 0 -198 31 -37 12 -89
21 -115 21 -61 0 -161 -31 -203 -63 -35 -27 -211 -113 -250 -122 -13 -3 -39
-7 -58 -9 -73 -10 -374 -135 -567 -237 -73 -38 -133 -67 -133 -64 0 9 -85 -28
-155 -69 -74 -43 -164 -128 -345 -326 -57 -63 -126 -137 -152 -165 -46 -48
-118 -149 -118 -165 0 -4 -15 -19 -34 -34 -19 -14 -65 -74 -102 -133 -38 -60
-93 -141 -123 -182 -64 -88 -110 -178 -146 -286 -15 -44 -45 -114 -68 -155
-22 -41 -69 -128 -104 -194 -34 -65 -87 -147 -115 -181 -29 -34 -63 -74 -74
-89 -108 -137 -373 -402 -478 -476 -43 -30 -100 -74 -127 -97 -27 -24 -51 -43
-53 -43 -2 0 -25 -4 -52 -9 -61 -12 -163 -24 -186 -23 -12 0 -18 -12 -23 -51
-7 -48 -6 -52 20 -73 47 -37 160 -45 248 -18 56 17 83 29 219 93 154 73 163
54 52 -111 -186 -277 -292 -506 -349 -758 -31 -135 -36 -150 -46 -150 -5 0 -9
-11 -9 -23 0 -13 -7 -37 -15 -54 -22 -44 -57 -183 -56 -220 0 -18 -4 -33 -9
-33 -6 0 -10 -18 -10 -39 0 -22 -4 -43 -10 -46 -5 -3 -10 -21 -10 -40 0 -19
-5 -37 -11 -40 -7 -5 -5 -13 5 -24 12 -13 14 -47 11 -196 -4 -221 2 -257 57
-308 47 -44 75 -57 121 -57 l32 1 -25 22 c-59 52 -60 56 -60 258 0 184 0 188
41 349 30 120 56 198 104 303 138 308 155 341 201 383 34 32 52 62 82 135 40
100 143 247 173 248 23 1 32 -221 14 -339 -7 -47 -23 -150 -35 -230 -12 -80
-32 -183 -46 -230 -67 -234 -90 -511 -59 -714 18 -119 19 -126 61 -256 56
-177 174 -380 286 -493 10 -10 18 -21 18 -25 0 -4 12 -15 26 -26 l26 -19 -7
24 c-4 13 -13 31 -20 39 -7 8 -16 31 -19 50 -3 19 -10 36 -15 38 -6 2 -11 9
-11 16 0 7 -12 41 -26 77 -14 35 -32 89 -39 119 -8 30 -21 80 -29 110 -32 108
-44 590 -15 590 5 0 9 -1 9 -2 1 -18 44 -204 63 -270 32 -111 146 -348 168
-348 5 0 15 -13 23 -29 8 -15 40 -53 70 -84 29 -31 56 -59 57 -64 5 -11 100
-93 121 -104 16 -9 16 -6 4 28 -7 21 -17 65 -21 98 -4 33 -11 67 -16 76 -5 10
-3 23 5 34 12 16 14 15 35 -14 12 -17 28 -31 34 -31 7 -1 32 -27 57 -58 53
-68 193 -207 276 -276 32 -27 101 -76 152 -109 50 -33 92 -64 92 -68 0 -5 14
-9 30 -9 17 0 30 3 30 8 0 4 -18 31 -40 61 -22 29 -40 57 -40 61 0 4 -18 37
-39 73 -59 96 -146 377 -117 377 3 0 22 -25 42 -56 20 -31 67 -92 106 -135 89
-102 384 -358 421 -366 25 -5 27 -9 21 -37 -4 -23 -1 -36 10 -45 28 -24 18
-36 -31 -37 -96 -2 -209 -40 -323 -109 -41 -24 -78 -45 -83 -45 -4 0 -28 19
-52 41 -25 23 -48 39 -51 36 -3 -3 11 -29 31 -58 38 -55 40 -72 10 -78 -13 -2
-16 1 -11 14 3 10 -2 29 -15 46 -16 23 -26 28 -45 23 -24 -6 -34 9 -14 21 11
7 14 45 3 45 -4 0 -33 -7 -65 -16 -54 -15 -60 -15 -76 0 -17 15 -20 14 -49
-17 -17 -17 -34 -42 -37 -54 -8 -25 -34 -49 -43 -39 -4 4 -2 16 5 26 16 26 15
31 -2 24 -15 -6 -36 48 -36 90 0 17 -5 15 -31 -12 -24 -25 -35 -49 -49 -116
-20 -91 -31 -115 -88 -205 -35 -53 -39 -69 -51 -170 -8 -67 -18 -111 -25 -111
-7 0 -11 -26 -11 -72 0 -40 -4 -82 -9 -93 -27 -59 -20 -188 15 -296 9 -29 8
-50 -5 -107 -9 -39 -16 -105 -16 -146 0 -41 -7 -95 -15 -118 -22 -67 -23 -187
0 -221 15 -24 16 -31 5 -52 -10 -19 -10 -70 5 -282 24 -355 23 -394 -12 -478
-20 -49 -46 -87 -91 -134 -35 -36 -78 -95 -96 -131 -19 -36 -53 -88 -76 -115
-48 -58 -90 -138 -90 -176 0 -26 10 -48 88 -189 l41 -75 3439 -3 3440 -2 22
92 c12 51 28 120 36 154 26 113 12 186 -43 219 -16 9 -41 36 -55 59 -14 24
-49 58 -81 79 -30 20 -80 66 -111 101 -54 61 -57 66 -66 142 -6 43 -8 131 -4
194 3 63 6 188 6 278 0 89 4 162 9 162 12 0 11 116 -1 138 -5 9 -21 75 -35
146 -28 137 -50 223 -109 424 -20 68 -36 134 -36 146 0 12 -9 29 -20 39 -11 9
-20 26 -20 37 0 38 32 100 59 113 23 11 26 18 27 67 1 46 -3 60 -23 82 -14 14
-40 62 -58 105 -77 183 -92 212 -123 238 -20 16 -32 36 -32 51 0 24 -55 122
-118 208 -36 49 -95 85 -140 86 -12 0 -45 -18 -73 -40 -28 -22 -60 -40 -70
-40 -31 0 -76 27 -158 94 -42 34 -92 69 -111 78 -19 8 -69 31 -110 50 -41 20
-90 39 -107 42 -44 10 -49 22 -16 40 46 24 186 167 253 257 62 83 113 180 167
314 30 78 42 91 58 68 6 -8 27 -18 45 -22 l35 -7 3 -79 c1 -44 5 -145 8 -224
4 -89 2 -152 -4 -165 -6 -11 -13 -45 -16 -74 -3 -36 -17 -72 -44 -117 -33 -56
-38 -70 -33 -107 9 -64 31 -61 101 14 53 56 59 68 60 106 0 36 6 49 41 85 77
79 193 263 211 335 4 12 10 22 15 22 56 0 35 -395 -26 -493 -26 -42 -27 -58
-3 -50 32 11 55 37 81 93 15 30 44 82 65 115 22 33 49 83 60 110 36 85 41 91
60 73 47 -48 161 71 344 360 81 127 115 195 134 261 33 119 56 225 63 291 4
36 9 69 12 73 3 4 15 -4 28 -19 41 -47 85 -260 104 -506 11 -134 7 -156 -50
-271 -44 -88 -49 -117 -20 -117 18 0 63 43 74 72 8 19 27 -10 27 -40 0 -33 23
-22 31 14 4 16 7 65 8 109 1 44 9 107 17 140 24 96 29 336 10 515 -18 171 -51
366 -90 535 -24 101 -33 137 -66 250 -42 142 -121 342 -215 541 -30 64 -55
127 -55 139 0 31 29 37 145 29 83 -6 98 -5 115 11 11 10 20 27 20 38 0 30 169
182 424 380 54 42 90 100 77 125 -16 31 -38 33 -99 11 -91 -33 -110 -37 -234
-49 -101 -11 -127 -10 -200 5 -46 9 -105 28 -133 43 -27 14 -81 41 -120 60
-80 39 -296 199 -420 311 -82 74 -209 225 -225 267 -5 11 -42 71 -83 132 -42
62 -95 147 -118 190 -23 42 -89 157 -146 255 -57 97 -107 185 -110 194 -4 10
-47 58 -96 108 -49 49 -124 131 -165 180 -152 180 -324 345 -486 466 -87 65
-256 169 -276 169 -6 0 -26 11 -43 24 -59 45 -220 131 -362 193 -109 48 -168
68 -265 87 -137 27 -404 50 -467 40 -23 -3 -49 -1 -60 5 -32 16 -179 232 -225
329 -36 74 -42 96 -42 150 l0 62 -242 0 c-177 0 -243 -3 -246 -12z"/>
        <path d="M6260 9981 c0 -10 9 -38 19 -62 11 -24 27 -77 36 -118 16 -70 16 -78
0 -148 -10 -43 -29 -90 -46 -113 -16 -22 -27 -40 -25 -40 17 0 127 75 183 125
119 107 140 133 135 166 -2 16 -8 29 -13 29 -13 0 -49 42 -49 57 0 8 9 26 20
42 17 22 19 32 11 54 l-11 27 -130 0 c-120 0 -130 -1 -130 -19z m99 -125 l-1
-51 -13 40 c-18 55 -18 76 0 69 11 -5 15 -20 14 -58z"/>
        <path d="M2453 3300 c-30 -12 -31 -43 -2 -38 25 4 61 48 38 47 -8 0 -24 -4
-36 -9z"/>
        <path d="M2563 3298 c2 -7 9 -13 15 -12 7 1 21 2 33 3 31 2 12 21 -22 21 -20
0 -29 -4 -26 -12z"/>
    </g>
</svg>
